<svg width="530" height="81" viewBox="0 0 530 81" fill="none" xmlns="http://www.w3.org/2000/svg">
<path d="M2.624 58V13.2H21.248V19.6H9.664V32.08H18.752V38.48H9.664V58H2.624ZM24.624 58V13.2H31.664V58H24.624ZM42.4405 58V19.6H35.0805V13.2H56.8405V19.6H49.4805V58H42.4405ZM60.249 58V13.2H69.081L75.929 40.016H76.057V13.2H82.329V58H75.097L66.649 25.296H66.521V58H60.249ZM87.5615 58V13.2H106.762V19.6H94.6015V31.44H104.266V37.84H94.6015V51.6H106.762V58H87.5615ZM120.089 58.64C113.177 58.64 109.721 54.544 109.721 47.376V44.816H116.377V47.888C116.377 51.088 117.785 52.24 120.025 52.24C122.265 52.24 123.673 51.088 123.673 47.76C123.673 44.048 122.265 41.68 117.657 37.648C111.769 32.464 109.849 28.816 109.849 23.696C109.849 16.656 113.497 12.56 120.345 12.56C127.193 12.56 130.585 16.656 130.585 23.824V25.68H123.929V23.376C123.929 20.176 122.649 18.96 120.409 18.96C118.169 18.96 116.889 20.176 116.889 23.248C116.889 26.512 118.361 28.88 122.969 32.912C128.857 38.096 130.713 41.68 130.713 47.248C130.713 54.544 127.001 58.64 120.089 58.64ZM143.901 58.64C136.989 58.64 133.533 54.544 133.533 47.376V44.816H140.189V47.888C140.189 51.088 141.597 52.24 143.837 52.24C146.077 52.24 147.485 51.088 147.485 47.76C147.485 44.048 146.077 41.68 141.469 37.648C135.581 32.464 133.661 28.816 133.661 23.696C133.661 16.656 137.309 12.56 144.157 12.56C151.005 12.56 154.397 16.656 154.397 23.824V25.68H147.741V23.376C147.741 20.176 146.461 18.96 144.221 18.96C141.981 18.96 140.701 20.176 140.701 23.248C140.701 26.512 142.173 28.88 146.781 32.912C152.669 38.096 154.525 41.68 154.525 47.248C154.525 54.544 150.813 58.64 143.901 58.64Z" fill="white"/>
<path d="M168.812 58V13.2H187.436V19.6H175.852V32.08H184.94V38.48H175.852V58H168.812ZM190.812 58V13.2H197.852V58H190.812ZM203.124 58V13.2H213.556C220.852 13.2 223.988 16.592 223.988 23.504V26.256C223.988 30.864 222.516 33.808 219.38 35.088V35.216C222.9 36.304 224.052 39.632 224.052 44.688V52.56C224.052 54.736 224.116 56.336 224.82 58H217.652C217.268 56.848 217.012 56.144 217.012 52.496V44.304C217.012 40.144 215.796 38.8 212.596 38.8H210.164V58H203.124ZM210.164 32.4H212.724C215.348 32.4 216.948 31.248 216.948 27.664V24.208C216.948 21.008 215.86 19.6 213.364 19.6H210.164V32.4ZM238.089 58.64C231.177 58.64 227.721 54.544 227.721 47.376V44.816H234.377V47.888C234.377 51.088 235.785 52.24 238.025 52.24C240.265 52.24 241.673 51.088 241.673 47.76C241.673 44.048 240.265 41.68 235.657 37.648C229.769 32.464 227.849 28.816 227.849 23.696C227.849 16.656 231.497 12.56 238.345 12.56C245.193 12.56 248.585 16.656 248.585 23.824V25.68H241.929V23.376C241.929 20.176 240.649 18.96 238.409 18.96C236.169 18.96 234.889 20.176 234.889 23.248C234.889 26.512 236.361 28.88 240.969 32.912C246.857 38.096 248.713 41.68 248.713 47.248C248.713 54.544 245.001 58.64 238.089 58.64ZM258.253 58V19.6H250.893V13.2H272.653V19.6H265.293V58H258.253ZM286.312 58V13.2H293.352V51.6H304.936V58H286.312ZM308.312 58V13.2H315.352V32.08L324.312 13.2H331.352L322.968 29.648L331.48 58H324.12L318.168 38.032L315.352 43.728V58H308.312Z" fill="#FF0000"/>
<path d="M2.556 75V69.636L0.162 62.4H2.268L3.618 67.026H3.654L5.004 62.4H6.93L4.536 69.636V75H2.556ZM19.0076 75.18C17.0636 75.18 16.0016 74.028 16.0016 72.012V65.388C16.0016 63.372 17.0636 62.22 19.0076 62.22C20.9516 62.22 22.0136 63.372 22.0136 65.388V72.012C22.0136 74.028 20.9516 75.18 19.0076 75.18ZM19.0076 73.38C19.6376 73.38 20.0336 73.038 20.0336 72.138V65.262C20.0336 64.362 19.6376 64.02 19.0076 64.02C18.3776 64.02 17.9816 64.362 17.9816 65.262V72.138C17.9816 73.038 18.3776 73.38 19.0076 73.38ZM34.8726 75.18C32.9286 75.18 31.9206 74.028 31.9206 72.012V62.4H33.9006V72.156C33.9006 73.056 34.2786 73.38 34.9086 73.38C35.5386 73.38 35.9166 73.056 35.9166 72.156V62.4H37.8246V72.012C37.8246 74.028 36.8166 75.18 34.8726 75.18ZM47.8748 75V62.4H50.8088C52.8608 62.4 53.7428 63.354 53.7428 65.298V66.072C53.7428 67.368 53.3288 68.196 52.4468 68.556V68.592C53.4368 68.898 53.7608 69.834 53.7608 71.256V73.47C53.7608 74.082 53.7788 74.532 53.9768 75H51.9608C51.8528 74.676 51.7808 74.478 51.7808 73.452V71.148C51.7808 69.978 51.4388 69.6 50.5388 69.6H49.8548V75H47.8748ZM49.8548 67.8H50.5748C51.3128 67.8 51.7628 67.476 51.7628 66.468V65.496C51.7628 64.596 51.4568 64.2 50.7548 64.2H49.8548V67.8ZM75.2974 75V62.4H78.2134C80.1934 62.4 81.1654 63.498 81.1654 65.514V66.756C81.1654 68.772 80.1934 69.87 78.2134 69.87H77.2774V75H75.2974ZM77.2774 68.07H78.2134C78.8434 68.07 79.1854 67.782 79.1854 66.882V65.388C79.1854 64.488 78.8434 64.2 78.2134 64.2H77.2774V68.07ZM89.7259 75L91.7779 62.4H94.4599L96.5119 75H94.5319L94.1719 72.498V72.534H91.9219L91.5619 75H89.7259ZM92.1559 70.824H93.9379L93.0559 64.596H93.0199L92.1559 70.824ZM106.113 75V62.4H109.047C111.099 62.4 111.981 63.354 111.981 65.298V66.072C111.981 67.368 111.567 68.196 110.685 68.556V68.592C111.675 68.898 111.999 69.834 111.999 71.256V73.47C111.999 74.082 112.017 74.532 112.215 75H110.199C110.091 74.676 110.019 74.478 110.019 73.452V71.148C110.019 69.978 109.677 69.6 108.777 69.6H108.093V75H106.113ZM108.093 67.8H108.813C109.551 67.8 110.001 67.476 110.001 66.468V65.496C110.001 64.596 109.695 64.2 108.993 64.2H108.093V67.8ZM123.525 75V64.2H121.455V62.4H127.575V64.2H125.505V75H123.525ZM137.174 75V62.4H139.658L141.584 69.942H141.62V62.4H143.384V75H141.35L138.974 65.802H138.938V75H137.174ZM153.495 75V62.4H158.895V64.2H155.475V67.53H158.193V69.33H155.475V73.2H158.895V75H153.495ZM168.674 75V62.4H171.608C173.66 62.4 174.542 63.354 174.542 65.298V66.072C174.542 67.368 174.128 68.196 173.246 68.556V68.592C174.236 68.898 174.56 69.834 174.56 71.256V73.47C174.56 74.082 174.578 74.532 174.776 75H172.76C172.652 74.676 172.58 74.478 172.58 73.452V71.148C172.58 69.978 172.238 69.6 171.338 69.6H170.654V75H168.674ZM170.654 67.8H171.374C172.112 67.8 172.562 67.476 172.562 66.468V65.496C172.562 64.596 172.256 64.2 171.554 64.2H170.654V67.8ZM196.097 75V62.4H198.077V75H196.097ZM208.2 75V62.4H210.684L212.61 69.942H212.646V62.4H214.41V75H212.376L210 65.802H209.964V75H208.2ZM236.044 75V62.4H241.282V64.2H238.024V67.71H240.58V69.51H238.024V75H236.044ZM250.872 75V62.4H252.852V75H250.872ZM264.523 75V64.2H262.453V62.4H268.573V64.2H266.503V75H264.523ZM278.171 75V62.4H280.655L282.581 69.942H282.617V62.4H284.381V75H282.347L279.971 65.802H279.935V75H278.171ZM294.493 75V62.4H299.893V64.2H296.473V67.53H299.191V69.33H296.473V73.2H299.893V75H294.493ZM312.281 75.18C310.337 75.18 309.365 74.028 309.365 72.012V71.292H311.237V72.156C311.237 73.056 311.633 73.38 312.263 73.38C312.893 73.38 313.289 73.056 313.289 72.12C313.289 71.076 312.893 70.41 311.597 69.276C309.941 67.818 309.401 66.792 309.401 65.352C309.401 63.372 310.427 62.22 312.353 62.22C314.279 62.22 315.233 63.372 315.233 65.388V65.91H313.361V65.262C313.361 64.362 313.001 64.02 312.371 64.02C311.741 64.02 311.381 64.362 311.381 65.226C311.381 66.144 311.795 66.81 313.091 67.944C314.747 69.402 315.269 70.41 315.269 71.976C315.269 74.028 314.225 75.18 312.281 75.18ZM327.619 75.18C325.675 75.18 324.703 74.028 324.703 72.012V71.292H326.575V72.156C326.575 73.056 326.971 73.38 327.601 73.38C328.231 73.38 328.627 73.056 328.627 72.12C328.627 71.076 328.231 70.41 326.935 69.276C325.279 67.818 324.739 66.792 324.739 65.352C324.739 63.372 325.765 62.22 327.691 62.22C329.617 62.22 330.571 63.372 330.571 65.388V65.91H328.699V65.262C328.699 64.362 328.339 64.02 327.709 64.02C327.079 64.02 326.719 64.362 326.719 65.226C326.719 66.144 327.133 66.81 328.429 67.944C330.085 69.402 330.607 70.41 330.607 71.976C330.607 74.028 329.563 75.18 327.619 75.18Z" fill="white"/>
</svg>
