<?xml version="1.0" encoding="UTF-8"?>
<svg version="1.1" xmlns="http://www.w3.org/2000/svg" width="356" height="81">
<path d="M0 0 C3.3 0 6.6 0 10 0 C11.65 6.27 13.3 12.54 15 19 C15.33 12.73 15.66 6.46 16 0 C18.31 0 20.62 0 23 0 C23 14.85 23 29.7 23 45 C20.03 45 17.06 45 14 45 C12.02 37.41 10.04 29.82 8 22 C7.67 29.59 7.34 37.18 7 45 C4.69 45 2.38 45 0 45 C0 30.15 0 15.3 0 0 Z " fill="#FEFEFE" transform="translate(60,13)"/>
<path d="M0 0 C5.28 0 10.56 0 16 0 C21 5 21 5 21.55859375 8.4453125 C21.51863281 9.65960938 21.47867188 10.87390625 21.4375 12.125 C21.41558594 13.34445313 21.39367187 14.56390625 21.37109375 15.8203125 C21 19 21 19 19 22 C19.66 22.99 20.32 23.98 21 25 C22.02139413 29.48385601 22.10576767 33.78862675 22.0625 38.375 C22.05347656 39.62023438 22.04445312 40.86546875 22.03515625 42.1484375 C22.02355469 43.08945312 22.01195312 44.03046875 22 45 C19.36 45 16.72 45 14 45 C13.67 39.06 13.34 33.12 13 27 C11.35 26.67 9.7 26.34 8 26 C8 32.27 8 38.54 8 45 C5.36 45 2.72 45 0 45 C0 30.15 0 15.3 0 0 Z M8 7 C8 10.96 8 14.92 8 19 C9.65 18.67 11.3 18.34 13 18 C13 14.7 13 11.4 13 8 C11.35 7.67 9.7 7.34 8 7 Z " fill="#FE1B1B" transform="translate(203,13)"/>
<path d="M0 0 C2.64 0 5.28 0 8 0 C8.33 4.29 8.66 8.58 9 13 C10.98 8.71 12.96 4.42 15 0 C17.97 0 20.94 0 24 0 C23.48308594 0.99 22.96617187 1.98 22.43359375 3 C21.7671873 4.33281291 21.1018809 5.66617624 20.4375 7 C20.09525391 7.64839844 19.75300781 8.29679687 19.40039062 8.96484375 C15.26592459 17.40082496 18.38030439 24.89901293 21.0625 33.375 C21.61825487 35.1529069 22.17175713 36.93152002 22.72265625 38.7109375 C22.96765869 39.48743652 23.21266113 40.26393555 23.46508789 41.06396484 C24 43 24 43 24 45 C21.03 45 18.06 45 15 45 C14.32635339 42.91891315 13.66133202 40.8350329 13 38.75 C12.62875 37.58984375 12.2575 36.4296875 11.875 35.234375 C11 32 11 32 11 28 C10.34 28 9.68 28 9 28 C8.67 33.61 8.34 39.22 8 45 C5.36 45 2.72 45 0 45 C0 30.15 0 15.3 0 0 Z " fill="#FE2020" transform="translate(308,13)"/>
<path d="M0 0 C2.38527062 1.9082165 3.29939676 2.84348031 4.1875 5.75 C4.2652346 8.08203812 4.27717728 10.41839059 4.1875 12.75 C1.5475 12.75 -1.0925 12.75 -3.8125 12.75 C-3.8125 10.77 -3.8125 8.79 -3.8125 6.75 C-5.4625 6.75 -7.1125 6.75 -8.8125 6.75 C-8.46309807 12.68983278 -7.20982751 14.84126444 -2.8125 18.75 C-1.70943998 19.94035253 -0.626435 21.14955197 0.4375 22.375 C0.93765625 22.94476563 1.4378125 23.51453125 1.953125 24.1015625 C5.26333788 28.52216325 4.76250905 34.50591751 4.1875 39.75 C2.38631522 42.75197464 1.28417268 44.20166366 -1.8125 45.75 C-6.07505164 46.18546696 -9.75429539 46.17778484 -13.75 44.5625 C-16.25911027 42.35752431 -17.00268281 40.98926878 -17.8125 37.75 C-17.88896165 35.4179198 -17.90393299 33.08154122 -17.8125 30.75 C-15.1725 30.75 -12.5325 30.75 -9.8125 30.75 C-9.1525 33.06 -8.4925 35.37 -7.8125 37.75 C-6.3275 37.255 -6.3275 37.255 -4.8125 36.75 C-4.32484478 32.65369615 -4.55926861 31.10452394 -7 27.6875 C-8.73766266 25.78739295 -10.54614005 24.06876281 -12.4375 22.3125 C-15.74608862 18.74270702 -17.7002741 15.40302032 -17.91015625 10.44140625 C-17.65288202 6.61994267 -17.26563773 4.35418364 -14.9375 1.25 C-10.30899092 -2.01718288 -5.13818219 -2.28363653 0 0 Z " fill="#FE2B2B" transform="translate(244.8125,13.25)"/>
<path d="M0 0 C2.38527062 1.9082165 3.29939676 2.84348031 4.1875 5.75 C4.2652346 8.08203812 4.27717728 10.41839059 4.1875 12.75 C1.5475 12.75 -1.0925 12.75 -3.8125 12.75 C-3.8125 10.77 -3.8125 8.79 -3.8125 6.75 C-5.4625 6.75 -7.1125 6.75 -8.8125 6.75 C-8.46309807 12.68983278 -7.20982751 14.84126444 -2.8125 18.75 C-1.70943998 19.94035253 -0.626435 21.14955197 0.4375 22.375 C0.93765625 22.94476563 1.4378125 23.51453125 1.953125 24.1015625 C5.26333788 28.52216325 4.76250905 34.50591751 4.1875 39.75 C2.38631522 42.75197464 1.28417268 44.20166366 -1.8125 45.75 C-6.07505164 46.18546696 -9.75429539 46.17778484 -13.75 44.5625 C-16.25911027 42.35752431 -17.00268281 40.98926878 -17.8125 37.75 C-17.88896165 35.4179198 -17.90393299 33.08154122 -17.8125 30.75 C-15.1725 30.75 -12.5325 30.75 -9.8125 30.75 C-9.1525 33.06 -8.4925 35.37 -7.8125 37.75 C-6.3275 37.255 -6.3275 37.255 -4.8125 36.75 C-4.32484478 32.65369615 -4.55926861 31.10452394 -7 27.6875 C-8.73766266 25.78739295 -10.54614005 24.06876281 -12.4375 22.3125 C-15.74608862 18.74270702 -17.7002741 15.40302032 -17.91015625 10.44140625 C-17.65288202 6.61994267 -17.26563773 4.35418364 -14.9375 1.25 C-10.30899092 -2.01718288 -5.13818219 -2.28363653 0 0 Z " fill="#FEFEFE" transform="translate(126.8125,13.25)"/>
<path d="M0 0 C2.55275574 2.17735049 3.29588854 3.57142793 4.125 6.8125 C4.25 10.125 4.25 10.125 4.125 12.8125 C1.485 12.8125 -1.155 12.8125 -3.875 12.8125 C-4.205 11.1625 -4.535 9.5125 -4.875 7.8125 C-6.195 7.8125 -7.515 7.8125 -8.875 7.8125 C-8.71384072 14.25887133 -5.05360138 17.38702283 -0.875 21.8125 C3.29444073 26.7499956 4.47653251 30.13717864 4.4140625 36.51953125 C3.96885733 40.0510912 2.43140292 42.17661095 0.125 44.8125 C-3.92892496 46.16380832 -7.63626125 46.3627924 -11.875 45.8125 C-15.37390004 43.69858123 -16.58078686 42.69513941 -17.875 38.8125 C-18.00281786 36.13855036 -17.91891871 33.49154143 -17.875 30.8125 C-15.235 30.8125 -12.595 30.8125 -9.875 30.8125 C-9.875 33.1225 -9.875 35.4325 -9.875 37.8125 C-7.4 37.3175 -7.4 37.3175 -4.875 36.8125 C-4.875 32.96534862 -5.01109725 30.80687777 -7.58203125 27.84765625 C-9.00660644 26.51294294 -10.43376725 25.18098486 -11.86328125 23.8515625 C-15.83200492 19.82889502 -17.64015799 15.75833383 -18.3125 10.1875 C-17.74335038 5.79691718 -16.711452 2.30886829 -13.1875 -0.5625 C-8.47897059 -1.83507552 -4.45518372 -1.84018458 0 0 Z " fill="#FEFEFE" transform="translate(150.875,13.1875)"/>
<path d="M0 0 C6.6 0 13.2 0 20 0 C20 2.31 20 4.62 20 7 C16.04 7 12.08 7 8 7 C8 10.63 8 14.26 8 18 C11.3 18 14.6 18 18 18 C18 20.31 18 22.62 18 25 C14.7 25 11.4 25 8 25 C8 29.29 8 33.58 8 38 C11.96 38 15.92 38 20 38 C20 40.31 20 42.62 20 45 C13.4 45 6.8 45 0 45 C0 30.15 0 15.3 0 0 Z " fill="#FEFEFE" transform="translate(87,13)"/>
<path d="M0 0 C6.6 0 13.2 0 20 0 C20 2.31 20 4.62 20 7 C16.04 7 12.08 7 8 7 C8 10.96 8 14.92 8 19 C10.97 19 13.94 19 17 19 C17 21.31 17 23.62 17 26 C14.03 26 11.06 26 8 26 C8 32.27 8 38.54 8 45 C5.36 45 2.72 45 0 45 C0 30.15 0 15.3 0 0 Z " fill="#FE1D1D" transform="translate(168,13)"/>
<path d="M0 0 C6.6 0 13.2 0 20 0 C20 2.31 20 4.62 20 7 C16.04 7 12.08 7 8 7 C8 10.96 8 14.92 8 19 C10.97 19 13.94 19 17 19 C17 21.31 17 23.62 17 26 C14.03 26 11.06 26 8 26 C8 32.27 8 38.54 8 45 C5.36 45 2.72 45 0 45 C0 30.15 0 15.3 0 0 Z " fill="#FEFEFE" transform="translate(2,13)"/>
<path d="M0 0 C7.59 0 15.18 0 23 0 C23 2.31 23 4.62 23 7 C20.69 7 18.38 7 16 7 C16 19.54 16 32.08 16 45 C13.36 45 10.72 45 8 45 C8 32.46 8 19.92 8 7 C5.36 7 2.72 7 0 7 C0 4.69 0 2.38 0 0 Z " fill="#FE1E1E" transform="translate(250,13)"/>
<path d="M0 0 C7.26 0 14.52 0 22 0 C22 2.31 22 4.62 22 7 C19.69 7 17.38 7 15 7 C15 19.54 15 32.08 15 45 C12.36 45 9.72 45 7 45 C7 32.46 7 19.92 7 7 C4.69 7 2.38 7 0 7 C0 4.69 0 2.38 0 0 Z " fill="#FEFEFE" transform="translate(35,13)"/>
<path d="M0 0 C2.64 0 5.28 0 8 0 C8 12.54 8 25.08 8 38 C11.63 38 15.26 38 19 38 C19 40.31 19 42.62 19 45 C12.73 45 6.46 45 0 45 C0 30.15 0 15.3 0 0 Z " fill="#FE1B1B" transform="translate(286,13)"/>
<path d="M0 0 C2.64 0 5.28 0 8 0 C8 14.85 8 29.7 8 45 C5.36 45 2.72 45 0 45 C0 30.15 0 15.3 0 0 Z " fill="#FE1F1F" transform="translate(190,13)"/>
<path d="M0 0 C2.64 0 5.28 0 8 0 C8 14.85 8 29.7 8 45 C5.36 45 2.72 45 0 45 C0 30.15 0 15.3 0 0 Z " fill="#FEFEFE" transform="translate(24,13)"/>
<path d="M0 0 C2.31 0 4.62 0 7 0 C7 4.29 7 8.58 7 13 C5.68 12.67 4.36 12.34 3 12 C2.01 12.33 1.02 12.66 0 13 C0 8.71 0 4.42 0 0 Z " fill="#FEFEFE" transform="translate(278,62)"/>
<path d="M0 0 C2.31 0 4.62 0 7 0 C7 4.29 7 8.58 7 13 C5.68 12.67 4.36 12.34 3 12 C2.01 12.33 1.02 12.66 0 13 C0 8.71 0 4.42 0 0 Z " fill="#FEFEFE" transform="translate(208,62)"/>
<path d="M0 0 C2.31 0 4.62 0 7 0 C7 4.29 7 8.58 7 13 C5.68 12.67 4.36 12.34 3 12 C2.01 12.33 1.02 12.66 0 13 C0 8.71 0 4.42 0 0 Z " fill="#FEFEFE" transform="translate(137,62)"/>
<path d="M0 0 C1.98 0 3.96 0 6 0 C7 1 7 1 7.09765625 3.72265625 C7.08605469 4.82480469 7.07445312 5.92695312 7.0625 7.0625 C7.05347656 8.16722656 7.04445313 9.27195312 7.03515625 10.41015625 C7.02355469 11.26480469 7.01195312 12.11945313 7 13 C4.69 13 2.38 13 0 13 C0 8.71 0 4.42 0 0 Z M3 3 C4 5 4 5 4 5 Z " fill="#FEFEFE" transform="translate(47,62)"/>
<path d="M0 0 C1.98 0 3.96 0 6 0 C7 1 7 1 7.09765625 3.72265625 C7.08605469 4.82480469 7.07445312 5.92695312 7.0625 7.0625 C7.05347656 8.16722656 7.04445312 9.27195312 7.03515625 10.41015625 C7.02355469 11.26480469 7.01195312 12.11945313 7 13 C4.69 13 2.38 13 0 13 C0 8.71 0 4.42 0 0 Z M3 3 C4 5 4 5 4 5 Z " fill="#FEFEFE" transform="translate(168,62)"/>
<path d="M0 0 C2.31 0 4.62 0 7 0 C7 4.29 7 8.58 7 13 C5.68 13.33 4.36 13.66 3 14 C1.26171875 12.91796875 1.26171875 12.91796875 0 11 C-0.29296875 8.30078125 -0.29296875 8.30078125 -0.1875 5.3125 C-0.16042969 4.31863281 -0.13335938 3.32476562 -0.10546875 2.30078125 C-0.07066406 1.54152344 -0.03585938 0.78226563 0 0 Z " fill="#FEFEFE" transform="translate(31,62)"/>
<path d="M0 0 C1.65 0 3.3 0 5 0 C6.81115956 1.81115956 6.38199448 4.61278227 6.5625 7.0625 C6.64628906 8.16722656 6.73007813 9.27195312 6.81640625 10.41015625 C6.87699219 11.26480469 6.93757813 12.11945313 7 13 C4.69 13 2.38 13 0 13 C0 8.71 0 4.42 0 0 Z " fill="#FEFEFE" transform="translate(106,62)"/>
<path d="M0 0 C1.65 0 3.3 0 5 0 C5.33 1.32 5.66 2.64 6 4 C5.01 4.495 5.01 4.495 4 5 C4.66 5.66 5.32 6.32 6 7 C6.25 9.5 6.25 9.5 6 12 C5.34 12.66 4.68 13.32 4 14 C1.875 13.625 1.875 13.625 0 13 C-0.33 11.68 -0.66 10.36 -1 9 C-0.34 8.67 0.32 8.34 1 8 C0.34 7.01 -0.32 6.02 -1 5 C-0.625 2.3125 -0.625 2.3125 0 0 Z M2 9 C3 11 3 11 3 11 Z " fill="#FEFEFE" transform="translate(325,62)"/>
<path d="M0 0 C1.2065625 0.0309375 1.2065625 0.0309375 2.4375 0.0625 C2.7675 1.3825 3.0975 2.7025 3.4375 4.0625 C2.4475 4.5575 2.4475 4.5575 1.4375 5.0625 C2.4275 6.5475 2.4275 6.5475 3.4375 8.0625 C3.0625 10.75 3.0625 10.75 2.4375 13.0625 C-1.3125 14.1875 -1.3125 14.1875 -3.5625 13.0625 C-3.5625 11.7425 -3.5625 10.4225 -3.5625 9.0625 C-2.9025 8.7325 -2.2425 8.4025 -1.5625 8.0625 C-2.2225 7.4025 -2.8825 6.7425 -3.5625 6.0625 C-3.75 3.5 -3.75 3.5 -3.5625 1.0625 C-2.5625 0.0625 -2.5625 0.0625 0 0 Z M-0.5625 9.0625 C0.4375 11.0625 0.4375 11.0625 0.4375 11.0625 Z " fill="#FEFEFE" transform="translate(312.5625,61.9375)"/>
<path d="M0 0 C1.98 0 3.96 0 6 0 C7.49084832 4.47254497 7.49084832 8.52745503 6 13 C4.0625 13.75 4.0625 13.75 2 14 C1.34 13.67 0.68 13.34 0 13 C0 8.71 0 4.42 0 0 Z M2 3 C2 5.31 2 7.62 2 10 C2.66 10 3.32 10 4 10 C4 7.69 4 5.38 4 3 C3.34 3 2.68 3 2 3 Z " fill="#FEFEFE" transform="translate(16,62)"/>
<path d="M0 0 C1.32 0 2.64 0 4 0 C4.66 4.29 5.32 8.58 6 13 C5.01 13 4.02 13 3 13 C3 12.34 3 11.68 3 11 C2.34 11 1.68 11 1 11 C1 11.66 1 12.32 1 13 C0.01 13 -0.98 13 -2 13 C-1.34 8.71 -0.68 4.42 0 0 Z " fill="#FEFEFE" transform="translate(91,62)"/>
<path d="M0 0 C1.98 0 3.96 0 6 0 C7.125 5.75 7.125 5.75 6 8 C5.01 8 4.02 8 3 8 C3 9.65 3 11.3 3 13 C2.01 13 1.02 13 0 13 C0 8.71 0 4.42 0 0 Z M3 3 C4 5 4 5 4 5 Z " fill="#FEFEFE" transform="translate(75,62)"/>
<path d="M0 0 C1.98 0 3.96 0 6 0 C6 0.99 6 1.98 6 3 C5.01 3 4.02 3 3 3 C3 3.66 3 4.32 3 5 C3.99 5 4.98 5 6 5 C6 5.99 6 6.98 6 8 C5.01 8 4.02 8 3 8 C3 8.99 3 9.98 3 11 C3.99 11 4.98 11 6 11 C6 11.66 6 12.32 6 13 C4.02 13 2.04 13 0 13 C0 8.71 0 4.42 0 0 Z " fill="#FEFEFE" transform="translate(294,62)"/>
<path d="M0 0 C1.98 0 3.96 0 6 0 C6 0.99 6 1.98 6 3 C5.01 3 4.02 3 3 3 C3 3.66 3 4.32 3 5 C3.99 5 4.98 5 6 5 C6 5.99 6 6.98 6 8 C5.01 8 4.02 8 3 8 C3 8.99 3 9.98 3 11 C3.99 11 4.98 11 6 11 C6 11.66 6 12.32 6 13 C4.02 13 2.04 13 0 13 C0 8.71 0 4.42 0 0 Z " fill="#FEFEFE" transform="translate(153,62)"/>
<path d="M0 0 C2.31 0 4.62 0 7 0 C6.39174965 4.34464536 5.73832608 8.67551867 5 13 C4.01 13 3.02 13 2 13 C1.34 8.71 0.68 4.42 0 0 Z " fill="#FEFEFE" transform="translate(0,62)"/>
<path d="M0 0 C1.98 0 3.96 0 6 0 C6 0.99 6 1.98 6 3 C5.01 3 4.02 3 3 3 C3 3.66 3 4.32 3 5 C3.66 5 4.32 5 5 5 C5 5.99 5 6.98 5 8 C4.34 8 3.68 8 3 8 C3 9.65 3 11.3 3 13 C2.01 13 1.02 13 0 13 C0 8.71 0 4.42 0 0 Z " fill="#FEFEFE" transform="translate(236,62)"/>
<path d="M0 0 C2.31 0 4.62 0 7 0 C7 0.99 7 1.98 7 3 C6.34 3 5.68 3 5 3 C5 6.3 5 9.6 5 13 C4.01 13 3.02 13 2 13 C2 9.7 2 6.4 2 3 C1.34 3 0.68 3 0 3 C0 2.01 0 1.02 0 0 Z " fill="#FEFEFE" transform="translate(262,62)"/>
<path d="M0 0 C2.31 0 4.62 0 7 0 C7 0.99 7 1.98 7 3 C6.34 3 5.68 3 5 3 C5 6.3 5 9.6 5 13 C4.01 13 3.02 13 2 13 C2 9.7 2 6.4 2 3 C1.34 3 0.68 3 0 3 C0 2.01 0 1.02 0 0 Z " fill="#FEFEFE" transform="translate(121,62)"/>
<path d="M0 0 C0.99 0 1.98 0 3 0 C3 4.29 3 8.58 3 13 C2.01 13 1.02 13 0 13 C0 8.71 0 4.42 0 0 Z " fill="#FEFEFE" transform="translate(250,62)"/>
<path d="M0 0 C0.99 0 1.98 0 3 0 C3 4.29 3 8.58 3 13 C2.01 13 1.02 13 0 13 C0 8.71 0 4.42 0 0 Z " fill="#FEFEFE" transform="translate(196,62)"/>
</svg>
